<svg width="40" height="40" viewBox="0 0 40 40" fill="none" xmlns="http://www.w3.org/2000/svg">
<path fill-rule="evenodd" clip-rule="evenodd" d="M20.0001 22.4916C17.4851 22.4916 15.4384 20.4466 15.4384 17.9316C15.4384 15.4166 17.4851 13.37 20.0001 13.37C22.5151 13.37 24.5601 15.4166 24.5601 17.9316C24.5601 20.4466 22.5151 22.4916 20.0001 22.4916ZM29.3568 7.7533C26.8051 5.12163 23.4818 3.67163 20.0001 3.67163C16.5151 3.67163 13.1918 5.12163 10.6384 7.75496C8.04678 10.4283 6.62345 14.02 6.73511 17.61C7.05011 27.7833 19.0334 35.705 19.5451 36.0366L19.9934 36.3283L20.4468 36.0416C20.9568 35.7183 32.9484 27.9883 33.2651 17.6083C33.3751 14.02 31.9501 10.4266 29.3568 7.7533Z" fill="white"/>
</svg>
