<svg width="40" height="40" viewBox="0 0 40 40" fill="none" xmlns="http://www.w3.org/2000/svg">
<path fill-rule="evenodd" clip-rule="evenodd" d="M27.892 6.40841V3.54175H25.392V11.1251H23.7253V6.40841H15.442V3.54175H12.942V11.1251H11.2753V6.40841H5.29199V14.9584H34.7087V6.40841H27.892Z" fill="white"/>
<path fill-rule="evenodd" clip-rule="evenodd" d="M14.4087 26.9751V29.4751H11.9087L11.892 26.9751H14.4087ZM14.4087 20.9917V23.4917H11.9087L11.892 20.9917H14.4087ZM21.2587 26.9751V29.4751H18.7587L18.742 26.9751H21.2587ZM21.2587 20.9917V23.4917H18.7587L18.742 20.9917H21.2587ZM28.1087 26.9751V29.4751H25.6087L25.592 26.9751H28.1087ZM28.1087 20.9917V23.4917H25.6087L25.592 20.9917H28.1087ZM5.29199 36.4584H34.7087V17.4584H5.29199V36.4584Z" fill="white"/>
</svg>
